<svg width="18" height="18" viewBox="0 0 18 18" fill="none" xmlns="http://www.w3.org/2000/svg">
<g id="BsFillPencilFill">
<path id="Vector" d="M14.4608 0.164326C14.3553 0.0588737 14.2122 -0.000366211 14.0631 -0.000366211C13.9139 -0.000366211 13.7709 0.0588737 13.6654 0.164326L11.8125 2.0172L15.9829 6.18758L17.8358 4.33583C17.8882 4.28358 17.9297 4.2215 17.9581 4.15316C17.9864 4.08483 18.001 4.01156 18.001 3.93758C18.001 3.86359 17.9864 3.79033 17.9581 3.72199C17.9297 3.65365 17.8882 3.59158 17.8358 3.53933L14.4608 0.164326ZM15.1875 6.98295L11.0172 2.81258L3.70465 10.1251H3.93753C4.08671 10.1251 4.22978 10.1843 4.33527 10.2898C4.44076 10.3953 4.50003 10.5384 4.50003 10.6876V11.2501H5.06253C5.21171 11.2501 5.35478 11.3093 5.46027 11.4148C5.56576 11.5203 5.62503 11.6634 5.62503 11.8126V12.3751H6.18753C6.33671 12.3751 6.47978 12.4343 6.58527 12.5398C6.69076 12.6453 6.75003 12.7884 6.75003 12.9376V13.5001H7.31253C7.46171 13.5001 7.60478 13.5593 7.71027 13.6648C7.81576 13.7703 7.87503 13.9134 7.87503 14.0626V14.2955L15.1875 6.98295ZM6.78603 15.3845C6.76235 15.3215 6.75016 15.2548 6.75003 15.1876V14.6251H6.18753C6.03834 14.6251 5.89527 14.5658 5.78978 14.4603C5.68429 14.3548 5.62503 14.2118 5.62503 14.0626V13.5001H5.06253C4.91334 13.5001 4.77027 13.4408 4.66478 13.3353C4.55929 13.2298 4.50003 13.0868 4.50003 12.9376V12.3751H3.93753C3.78834 12.3751 3.64527 12.3158 3.53978 12.2103C3.43429 12.1048 3.37503 11.9618 3.37503 11.8126V11.2501H2.81253C2.74527 11.25 2.67859 11.2378 2.61565 11.2141L2.41428 11.4143C2.36067 11.4683 2.31857 11.5326 2.29053 11.6033L0.040526 17.2283C-0.000391027 17.3305 -0.0104075 17.4425 0.0117184 17.5504C0.0338443 17.6583 0.0871395 17.7572 0.164997 17.8351C0.242854 17.913 0.34185 17.9663 0.44971 17.9884C0.557571 18.0105 0.669554 18.0005 0.771776 17.9596L6.39678 15.7096C6.4675 15.6815 6.53179 15.6394 6.58578 15.5858L6.78603 15.3856V15.3845Z" fill="#666666"/>
</g>
</svg>
