<svg width="24" height="24" viewBox="0 0 24 24" fill="none" xmlns="http://www.w3.org/2000/svg">
<g id="MdOutlineSettings">
<path id="Vector" d="M19.43 12.98C19.47 12.66 19.5 12.34 19.5 12C19.5 11.66 19.47 11.34 19.43 11.02L21.54 9.36999C21.73 9.21999 21.78 8.94999 21.66 8.72999L19.66 5.26999C19.601 5.16681 19.5072 5.088 19.3955 5.04769C19.2837 5.00738 19.1612 5.00819 19.05 5.04999L16.56 6.04999C16.04 5.64999 15.48 5.31999 14.87 5.06999L14.49 2.41999C14.4734 2.30233 14.4145 2.19475 14.3243 2.11742C14.2341 2.0401 14.1188 1.99834 14 1.99999H9.99996C9.74996 1.99999 9.53996 2.17999 9.50996 2.41999L9.12996 5.06999C8.51996 5.31999 7.95996 5.65999 7.43996 6.04999L4.94996 5.04999C4.89198 5.03032 4.83119 5.02018 4.76996 5.01999C4.59996 5.01999 4.42996 5.10999 4.33996 5.26999L2.33996 8.72999C2.20996 8.94999 2.26996 9.21999 2.45996 9.36999L4.56996 11.02C4.52996 11.34 4.49996 11.67 4.49996 12C4.49996 12.33 4.52996 12.66 4.56996 12.98L2.45996 14.63C2.26996 14.78 2.21996 15.05 2.33996 15.27L4.33996 18.73C4.39891 18.8332 4.49268 18.912 4.60446 18.9523C4.71624 18.9926 4.83873 18.9918 4.94996 18.95L7.43996 17.95C7.95996 18.35 8.51996 18.68 9.12996 18.93L9.50996 21.58C9.53996 21.82 9.74996 22 9.99996 22H14C14.25 22 14.46 21.82 14.49 21.58L14.87 18.93C15.48 18.68 16.04 18.34 16.56 17.95L19.05 18.95C19.11 18.97 19.17 18.98 19.23 18.98C19.4 18.98 19.57 18.89 19.66 18.73L21.66 15.27C21.78 15.05 21.73 14.78 21.54 14.63L19.43 12.98ZM17.45 11.27C17.49 11.58 17.5 11.79 17.5 12C17.5 12.21 17.48 12.43 17.45 12.73L17.31 13.86L18.2 14.56L19.28 15.4L18.58 16.61L17.31 16.1L16.27 15.68L15.37 16.36C14.94 16.68 14.53 16.92 14.12 17.09L13.06 17.52L12.9 18.65L12.7 20H11.3L11.11 18.65L10.95 17.52L9.88996 17.09C9.45996 16.91 9.05996 16.68 8.65996 16.38L7.74996 15.68L6.68996 16.11L5.41996 16.62L4.71996 15.41L5.79996 14.57L6.68996 13.87L6.54996 12.74C6.51996 12.43 6.49996 12.2 6.49996 12C6.49996 11.8 6.51996 11.57 6.54996 11.27L6.68996 10.14L5.79996 9.43999L4.71996 8.59999L5.41996 7.38999L6.68996 7.89999L7.72996 8.31999L8.62996 7.63999C9.05996 7.31999 9.46996 7.07999 9.87996 6.90999L10.94 6.47999L11.1 5.34999L11.3 3.99999H12.69L12.88 5.34999L13.04 6.47999L14.1 6.90999C14.53 7.08999 14.93 7.31999 15.33 7.61999L16.24 8.31999L17.3 7.88999L18.57 7.37999L19.27 8.58999L18.2 9.43999L17.31 10.14L17.45 11.27ZM12 7.99999C9.78996 7.99999 7.99996 9.78999 7.99996 12C7.99996 14.21 9.78996 16 12 16C14.21 16 16 14.21 16 12C16 9.78999 14.21 7.99999 12 7.99999ZM12 14C10.9 14 9.99996 13.1 9.99996 12C9.99996 10.9 10.9 9.99999 12 9.99999C13.1 9.99999 14 10.9 14 12C14 13.1 13.1 14 12 14Z" fill="black"/>
</g>
</svg>
